<?xml version="1.0" encoding="UTF-8" standalone="no"?>
<svg
   viewBox="0 0 1440 14.145828"
   version="1.1"
   id="svg1"
   sodipodi:docname="black_top_wave.svg"
   width="1440"
   height="14.145828"
   inkscape:version="1.3 (0e150ed, 2023-07-21)"
   xmlns:inkscape="http://www.inkscape.org/namespaces/inkscape"
   xmlns:sodipodi="http://sodipodi.sourceforge.net/DTD/sodipodi-0.dtd"
   xmlns="http://www.w3.org/2000/svg"
   xmlns:svg="http://www.w3.org/2000/svg">
  <defs
     id="defs1" />
  <sodipodi:namedview
     id="namedview1"
     pagecolor="#ffffff"
     bordercolor="#000000"
     borderopacity="0.25"
     inkscape:showpageshadow="2"
     inkscape:pageopacity="0.0"
     inkscape:pagecheckerboard="0"
     inkscape:deskcolor="#d1d1d1"
     inkscape:zoom="1.0434045"
     inkscape:cx="681.90238"
     inkscape:cy="47.920055"
     inkscape:window-width="1312"
     inkscape:window-height="449"
     inkscape:window-x="0"
     inkscape:window-y="38"
     inkscape:window-maximized="0"
     inkscape:current-layer="svg1" />
  <path
     fill="#000000"
     fill-opacity="1"
     d="M 0,4.5458279 6.2,3.7458274 c 6.1,-0.8 18.8,-2.399999 30.8,-3.19999998 12.2,-0.799999 25,-0.799999 37,0.53499998 12.2,1.315001 24,4.0150005 37,5.8650005 12.1,1.85 24,2.9500004 37,1.865 12,-1.065 24,-4.265 37,-4.265 11.9,0 24,3.2 37,3.735 11.8,0.515 24,-1.585 36,-3.2 12.8,-1.5849995 25,-2.6849995 37,-3.1999995 12.7,-0.535 25,-0.535 37,1.329999 12.6,1.8850005 25,5.5850005 37,6.6700008 12.5,1.0649998 25,-0.5350001 37,-1.3350003 12.5,-0.8 25,-0.8 37,-0.8 12.4,0 25,0 37,-0.8 12.3,-0.8 25,-2.4 37,-1.335 12.2,1.085 25,4.7850001 37,5.6000001 12.2,0.785 24,-1.3149997 37,-2.6650001 12.1,-1.35 24,-1.85 37,-2.665 12,-0.785 24,-1.8849995 37,-0.8 11.9,1.065 24,4.2650002 37,3.73 11.8,-0.515 24,-4.8149995 36,-5.6000005 12.8,-0.815 25,1.8850005 37,2.1350005 12.7,0.25 25,-1.8499995 37,-1.3349995 12.6,0.5349995 25,3.7349995 37,4.2699995 12.5,0.515 25,-1.585 37,-3.735 12.5,-2.1499995 25,-4.25000048 37,-4.00000048 12.4,0.25 25,2.95000098 37,5.33500048 12.3,2.415 25,4.5150001 37,5.3300001 12.2,0.785 25,0.285 37,0.535 12.2,0.25 24,1.35 37,-0.535 12.1,-1.8649999 24,-6.6650001 37,-9.0649996 12,-2.39999998 24,-2.39999998 37,-1.065001 11.9,1.315001 24,4.0150005 37,5.6000005 11.8,1.615 24,2.115 36,1.33 12.8,-0.815 25,-2.915 37,-4.2649995 12.7,-1.35 25,-1.85 37,-2.4 12.6,-0.55000098 25,-1.05000098 37,-1.06500098 12.5,0.015 25,0.515 37,1.32999998 12.5,0.785 25,1.885001 37,1.87 12.4,0.015 25,-1.084999 31,-1.599999 l 6,-0.535 V 14.145828 h -6.2 c -6.1,0 -18.8,0 -30.8,0 -12.2,0 -25,0 -37,0 -12.2,0 -24,0 -37,0 -12.1,0 -24,0 -37,0 -12,0 -24,0 -37,0 -11.9,0 -24,0 -37,0 -11.8,0 -24,0 -36,0 -12.8,0 -25,0 -37,0 -12.7,0 -25,0 -37,0 -12.6,0 -25,0 -37,0 -12.5,0 -25,0 -37,0 -12.5,0 -25,0 -37,0 -12.4,0 -25,0 -37,0 -12.3,0 -25,0 -37,0 -12.2,0 -25,0 -37,0 -12.2,0 -24,0 -37,0 -12.1,0 -24,0 -37,0 -12,0 -24,0 -37,0 -11.9,0 -24,0 -37,0 -11.8,0 -24,0 -36,0 -12.8,0 -25,0 -37,0 -12.7,0 -25,0 -37,0 -12.6,0 -25,0 -37,0 -12.5,0 -25,0 -37,0 -12.5,0 -25,0 -37,0 -12.4,0 -25,0 -37,0 -12.3,0 -25,0 -37,0 -12.2,0 -25,0 -37,0 -12.2,0 -24,0 -37,0 -12.1,0 -24,0 -37,0 -12,0 -24,0 -37,0 -11.9,0 -24,0 -37,0 -11.8,0 -24,0 -36,0 -12.8,0 -25,0 -37,0 -12.7,0 -25,0 -37,0 -12.6,0 -25,0 -37,0 -12.5,0 -25,0 -37,0 -12.5,0 -25,0 -37,0 -12.4,0 -25,0 -31,0 H 0 Z"
     id="path1"
     style="stroke-width:0.223607" />
</svg>
