<?xml version="1.0" encoding="UTF-8" standalone="no"?>
<svg
   viewBox="0 0 1440 14.145828"
   version="1.1"
   id="svg1"
   sodipodi:docname="black_bottom_wave.svg"
   width="1440"
   height="14.145828"
   xmlns:inkscape="http://www.inkscape.org/namespaces/inkscape"
   xmlns:sodipodi="http://sodipodi.sourceforge.net/DTD/sodipodi-0.dtd"
   xmlns="http://www.w3.org/2000/svg"
   xmlns:svg="http://www.w3.org/2000/svg">
  <defs
     id="defs1" />
  <sodipodi:namedview
     id="namedview1"
     pagecolor="#ffffff"
     bordercolor="#000000"
     borderopacity="0.25"
     inkscape:showpageshadow="2"
     inkscape:pageopacity="0.0"
     inkscape:pagecheckerboard="0"
     inkscape:deskcolor="#d1d1d1" />
  <path
     fill="#000000"
     fill-opacity="1"
     d="m 0,9.6000005 6.2,0.8000005 c 6.1,0.8 18.8,2.399999 30.8,3.2 C 49.2,14.4 62,14.4 74,13.065001 86.2,11.75 98,9.0500005 111,7.2000005 c 12.1,-1.85 24,-2.9500004 37,-1.865 12,1.065 24,4.265 37,4.265 11.9,0 24,-3.2 37,-3.735 11.8,-0.515 24,1.585 36,3.2 C 270.8,10.65 283,11.75 295,12.265 c 12.7,0.535 25,0.535 37,-1.329999 12.6,-1.8850005 25,-5.5850005 37,-6.6700008 12.5,-1.065 25,0.5350001 37,1.3350003 12.5,0.8 25,0.8 37,0.8 12.4,0 25,0 37,0.8 12.3,0.8 25,2.4 37,1.335 12.2,-1.085 25,-4.7850003 37,-5.6000005 12.2,-0.785 24,1.3150001 37,2.6650005 12.1,1.35 24,1.85 37,2.665 12,0.785 24,1.8849995 37,0.8 11.9,-1.065 24,-4.2650002 37,-3.73 11.8,0.515 24,4.8149995 36,5.6000005 12.8,0.815 25,-1.8850005 37,-2.1350005 12.7,-0.25 25,1.8499995 37,1.3349995 12.6,-0.5349995 25,-3.7349995 37,-4.2699995 12.5,-0.515 25,1.585 37,3.735 12.5,2.1499995 25,4.2500005 37,4.0000005 12.4,-0.25 25,-2.950001 37,-5.3350005 12.3,-2.415 25,-4.5150003 37,-5.3300005 12.2,-0.785 25,-0.285 37,-0.535 12.2,-0.25 24,-1.35 37,0.535 12.1,1.8650003 24,6.6650005 37,9.065 12,2.4 24,2.4 37,1.065001 11.9,-1.315001 24,-4.0150005 37,-5.6000005 11.8,-1.615 24,-2.115 36,-1.33 12.8,0.815 25,2.915 37,4.2649995 12.7,1.35 25,1.85 37,2.4 12.6,0.550001 25,1.050001 37,1.065001 12.5,-0.015 25,-0.515 37,-1.33 12.5,-0.785 25,-1.885001 37,-1.87 12.4,-0.015 25,1.084999 31,1.599999 l 6,0.535 V 0 h -6.2 c -6.1,0 -18.8,0 -30.8,0 -12.2,0 -25,0 -37,0 -12.2,0 -24,0 -37,0 -12.1,0 -24,0 -37,0 -12,0 -24,0 -37,0 -11.9,0 -24,0 -37,0 -11.8,0 -24,0 -36,0 -12.8,0 -25,0 -37,0 -12.7,0 -25,0 -37,0 -12.6,0 -25,0 -37,0 -12.5,0 -25,0 -37,0 -12.5,0 -25,0 -37,0 C 984.6,0 972,0 960,0 947.7,0 935,0 923,0 910.8,0 898,0 886,0 873.8,0 862,0 849,0 836.9,0 825,0 812,0 800,0 788,0 775,0 763.1,0 751,0 738,0 726.2,0 714,0 702,0 689.2,0 677,0 665,0 652.3,0 640,0 628,0 615.4,0 603,0 591,0 578.5,0 566,0 554,0 541.5,0 529,0 517,0 504.6,0 492,0 480,0 467.7,0 455,0 443,0 430.8,0 418,0 406,0 393.8,0 382,0 369,0 356.9,0 345,0 332,0 320,0 308,0 295,0 283.1,0 271,0 258,0 246.2,0 234,0 222,0 209.2,0 197,0 185,0 172.3,0 160,0 148,0 135.4,0 123,0 111,0 98.5,0 86,0 74,0 61.5,0 49,0 37,0 24.6,0 12,0 6,0 H 0 Z"
     id="path1"
     style="stroke-width:0.223607" />
</svg>
