<?xml version="1.0" encoding="UTF-8" standalone="no"?>
<svg
   viewBox="0 0 1440 16"
   version="1.1"
   id="svg1"
   sodipodi:docname="white_bottom_wave.svg"
   width="1440"
   height="16"
   xmlns:inkscape="http://www.inkscape.org/namespaces/inkscape"
   xmlns:sodipodi="http://sodipodi.sourceforge.net/DTD/sodipodi-0.dtd"
   xmlns="http://www.w3.org/2000/svg"
   xmlns:svg="http://www.w3.org/2000/svg">
  <defs
     id="defs1" />
  <sodipodi:namedview
     id="namedview1"
     pagecolor="#ffffff"
     bordercolor="#000000"
     borderopacity="0.25"
     inkscape:showpageshadow="2"
     inkscape:pageopacity="0.0"
     inkscape:pagecheckerboard="0"
     inkscape:deskcolor="#d1d1d1" />
  <path
     fill="#000000"
     fill-opacity="1"
     d="M 0,8 6.2,6.935 C 12.3,5.85 25,3.75 37,4.8 c 12.2,1.05 25,5.35 37,5.6 12.2,0.25 24,-3.45 37,-4 12.1,-0.55 24,2.15 37,1.865 C 160,8 172,4.8 185,4 c 11.9,-0.8 24,0.8 37,1.335 11.8,0.515 24,0.015 36,1.33 12.8,1.335 25,4.535 37,4.8 12.7,0.285 25,-2.415 37,-3.73 12.6,-1.335 25,-1.335 37,-1.6 12.5,-0.285 25,-0.785 37,0.8 12.5,1.615 25,5.315 37,5.33 C 455.4,12.25 468,8.55 480,7.2 492.3,5.85 505,6.95 517,6.665 529.2,6.4 542,4.8 554,3.735 566.2,2.65 578,2.15 591,1.6 c 12.1,-0.55 24,-1.05 37,0.265 12,1.335 24,4.535 37,6.67 11.9,2.115 24,3.215 37,4 11.8,0.815 24,1.315 36,1.6 12.8,0.265 25,0.265 37,0 12.7,-0.285 25,-0.785 37,-2.935 12.6,-2.15 25,-5.85 37,-5.865 12.5,0.015 25,3.715 37,4.265 12.5,0.55 25,-2.15 37,-4 12.4,-1.85 25,-2.95 37,-2.4 12.3,0.55 25,2.65 37,4 12.2,1.35 25,1.85 37,0.8 12.2,-1.05 24,-3.75 37,-2.665 12.1,1.065 24,5.865 37,6.13 12,0.285 24,-4.015 37,-6.4 11.9,-2.415 24,-2.915 37,-1.33 11.8,1.615 24,5.315 36,7.73 12.8,2.385 25,3.485 37,3.735 12.7,0.25 25,-0.25 37,-2.4 12.6,-2.15 25,-5.85 37,-5.865 12.5,0.015 25,3.715 37,4 12.5,0.265 25,-2.935 37,-2.67 12.4,0.285 25,3.985 31,5.87 L 1440,16 V 0 h -6.2 c -6.1,0 -18.8,0 -30.8,0 -12.2,0 -25,0 -37,0 -12.2,0 -24,0 -37,0 -12.1,0 -24,0 -37,0 -12,0 -24,0 -37,0 -11.9,0 -24,0 -37,0 -11.8,0 -24,0 -36,0 -12.8,0 -25,0 -37,0 -12.7,0 -25,0 -37,0 -12.6,0 -25,0 -37,0 -12.5,0 -25,0 -37,0 -12.5,0 -25,0 -37,0 C 984.6,0 972,0 960,0 947.7,0 935,0 923,0 910.8,0 898,0 886,0 873.8,0 862,0 849,0 836.9,0 825,0 812,0 800,0 788,0 775,0 763.1,0 751,0 738,0 726.2,0 714,0 702,0 689.2,0 677,0 665,0 652.3,0 640,0 628,0 615.4,0 603,0 591,0 578.5,0 566,0 554,0 541.5,0 529,0 517,0 504.6,0 492,0 480,0 467.7,0 455,0 443,0 430.8,0 418,0 406,0 393.8,0 382,0 369,0 356.9,0 345,0 332,0 320,0 308,0 295,0 283.1,0 271,0 258,0 246.2,0 234,0 222,0 209.2,0 197,0 185,0 172.3,0 160,0 148,0 135.4,0 123,0 111,0 98.5,0 86,0 74,0 61.5,0 49,0 37,0 24.6,0 12,0 6,0 H 0 Z"
     id="path1"
     style="fill:#ffffff;fill-opacity:1;stroke-width:0.223607" />
</svg>
