<?xml version="1.0" encoding="UTF-8" standalone="no"?>
<svg
   viewBox="0 0 1440 13.865234"
   version="1.1"
   id="svg1"
   sodipodi:docname="white_top_wave.svg"
   width="1440"
   height="13.865234"
   inkscape:version="1.3 (0e150ed, 2023-07-21)"
   xmlns:inkscape="http://www.inkscape.org/namespaces/inkscape"
   xmlns:sodipodi="http://sodipodi.sourceforge.net/DTD/sodipodi-0.dtd"
   xmlns="http://www.w3.org/2000/svg"
   xmlns:svg="http://www.w3.org/2000/svg">
  <defs
     id="defs1" />
  <sodipodi:namedview
     id="namedview1"
     pagecolor="#ffffff"
     bordercolor="#000000"
     borderopacity="0.25"
     inkscape:showpageshadow="2"
     inkscape:pageopacity="0.0"
     inkscape:pagecheckerboard="0"
     inkscape:deskcolor="#d1d1d1"
     inkscape:zoom="0.47222222"
     inkscape:cx="718.94118"
     inkscape:cy="6.3529412"
     inkscape:window-width="1312"
     inkscape:window-height="449"
     inkscape:window-x="0"
     inkscape:window-y="38"
     inkscape:window-maximized="0"
     inkscape:current-layer="svg1" />
  <path
     fill="#000000"
     fill-opacity="1"
     d="m 0,13.864855 6.2,-1.335 c 6.1,-1.315 18.8,-4.015 30.8,-4 12.2,-0.01 25,2.685 37,1.6 12.2,-1.065 24,-5.865 37,-6.3999999 12.1,-0.515 24,3.1849999 37,3.7349999 12,0.55 24,-2.15 37,-2.4 11.9,-0.25 24,1.85 37,2.4 11.8,0.55 24,-0.55 36,-0.535 12.8,-0.01 25,1.085 37,1.6 12.7,0.535 25,0.535 37,-0.8 12.6,-1.315 25,-4.0149999 37,-4.7999999 12.5,-0.815 25,0.285 37,-0.265 12.5,-0.55 25,-2.65000004 37,-2.66500004411 C 455.4,0.01985506 468,2.1148551 480,3.1998551 c 12.3,1.0649999 25,1.0649999 37,2.6649999 12.2,1.6 25,4.8 37,5.065 12.2,0.285 24,-2.415 37,-3.465 12.1,-1.05 24,-0.55 37,0.265 12,0.785 24,1.885 37,2.4 11.9,0.535 24,0.535 37,0.27 11.8,-0.285 24,-0.785 36,-2.4 12.8,-1.585 25,-4.2849999 37,-4.5349999 12.7,-0.25 25,1.8499999 37,3.4649999 12.6,1.585 25,2.685 37,1.335 12.5,-1.35 25,-5.0499999 37,-5.8649999 12.5,-0.785 25,1.315 37,1.8649999 12.4,0.55 25,-0.5499999 37,0.265 12.3,0.785 25,3.485 37,3.2 12.2,-0.265 25,-3.465 37,-3.2 12.2,0.285 24,3.985 37,5.87 12.1,1.865 24,1.865 37,0 12,-1.885 24,-5.585 37,-6.4 11.9,-0.7849999 24,1.315 37,1.865 11.8,0.55 24,-0.55 36,-1.335 12.8,-0.8149999 25,-1.3149999 37,-1.8649999 12.7,-0.55 25,-1.05 37,-1.6 12.6,-0.55000004 25,-1.05000004 37,-0.80000004 12.5,0.25 25,1.35000004 37,3.20000004 12.5,1.8499999 25,4.5499999 37,4.2649999 12.4,-0.265 25,-3.465 31,-5.0649999 l 6,-1.6 V 13.864855 h -6.2 c -6.1,0 -18.8,0 -30.8,0 -12.2,0 -25,0 -37,0 -12.2,0 -24,0 -37,0 -12.1,0 -24,0 -37,0 -12,0 -24,0 -37,0 -11.9,0 -24,0 -37,0 -11.8,0 -24,0 -36,0 -12.8,0 -25,0 -37,0 -12.7,0 -25,0 -37,0 -12.6,0 -25,0 -37,0 -12.5,0 -25,0 -37,0 -12.5,0 -25,0 -37,0 -12.4,0 -25,0 -37,0 -12.3,0 -25,0 -37,0 -12.2,0 -25,0 -37,0 -12.2,0 -24,0 -37,0 -12.1,0 -24,0 -37,0 -12,0 -24,0 -37,0 -11.9,0 -24,0 -37,0 -11.8,0 -24,0 -36,0 -12.8,0 -25,0 -37,0 -12.7,0 -25,0 -37,0 -12.6,0 -25,0 -37,0 -12.5,0 -25,0 -37,0 -12.5,0 -25,0 -37,0 -12.4,0 -25,0 -37,0 -12.3,0 -25,0 -37,0 -12.2,0 -25,0 -37,0 -12.2,0 -24,0 -37,0 -12.1,0 -24,0 -37,0 -12,0 -24,0 -37,0 -11.9,0 -24,0 -37,0 -11.8,0 -24,0 -36,0 -12.8,0 -25,0 -37,0 -12.7,0 -25,0 -37,0 -12.6,0 -25,0 -37,0 -12.5,0 -25,0 -37,0 -12.5,0 -25,0 -37,0 -12.4,0 -25,0 -31,0 z"
     id="path1"
     style="fill:#ffffff;fill-opacity:1;stroke-width:0.223607" />
</svg>
